<svg width="41" height="40" viewBox="0 0 41 40" fill="none" xmlns="http://www.w3.org/2000/svg">
<path d="M35.743 13.1612V35.0581C35.743 37.0971 34.0901 38.75 32.0511 38.75H9.28367C7.24469 38.75 5.5918 37.0971 5.5918 35.0581V4.94187C5.59172 2.90289 7.24461 1.25 9.28367 1.25H24.5327L35.743 13.1612Z" fill="#0263D1"/>
<path d="M35.7434 13.1612H26.9945C25.6352 13.1612 24.5332 12.0592 24.5332 10.6999V1.25L35.7434 13.1612Z" fill="#4E92DF"/>
<path d="M24.5322 1.25V10.6999C24.5322 12.0592 25.6342 13.1612 26.9935 13.1612H35.7424" fill="#4E92DF"/>
<path d="M10.9053 29.9492V22.599H13.2728C13.9218 22.599 14.5058 22.7457 15.025 23.0413C15.5418 23.3345 15.9479 23.7504 16.2388 24.2888C16.5296 24.8248 16.6762 25.4257 16.6786 26.0914V26.4304C16.6786 27.1033 16.5368 27.7067 16.2532 28.2403C15.9696 28.7739 15.5682 29.1897 15.0514 29.4925C14.5346 29.793 13.9578 29.9444 13.3232 29.9493L10.9053 29.9492ZM12.6767 23.9666V28.5863H13.292C13.8015 28.5863 14.1909 28.4061 14.4625 28.0431C14.7365 27.6825 14.8736 27.1442 14.8736 26.4303V26.113C14.8736 25.4015 14.7365 24.8679 14.4625 24.5074C14.1909 24.1468 13.7943 23.9666 13.2728 23.9666H12.6767ZM23.8101 26.4255C23.8101 27.1418 23.6779 27.7763 23.4111 28.3292C23.1468 28.8796 22.7693 29.305 22.279 29.6031C21.7887 29.9011 21.2311 30.0501 20.6061 30.0501C19.9788 30.0501 19.4236 29.9059 18.9404 29.6175C18.4549 29.3314 18.0775 28.918 17.8059 28.3844C17.5367 27.8484 17.3925 27.2355 17.3804 26.5409V26.1275C17.3804 25.4064 17.5126 24.7718 17.777 24.2214C18.0414 23.6711 18.4187 23.248 18.9115 22.9475C19.4043 22.6471 19.9667 22.4981 20.5964 22.4981C21.2189 22.4981 21.7742 22.6471 22.2621 22.9428C22.7501 23.2384 23.1275 23.6614 23.399 24.2071C23.6707 24.7551 23.8076 25.38 23.81 26.0867V26.4255H23.8101ZM22.0098 26.1179C22.0098 25.3871 21.8872 24.8319 21.6421 24.4546C21.3993 24.0748 21.0508 23.8873 20.5965 23.8873C19.7072 23.8873 19.2385 24.5531 19.188 25.8846L19.1832 26.4254C19.1832 27.1465 19.301 27.6993 19.5413 28.0863C19.7793 28.4732 20.135 28.6656 20.6061 28.6656C21.0531 28.6656 21.3968 28.4757 21.6396 28.0959C21.8823 27.7161 22.0049 27.1681 22.0097 26.4567V26.1179H22.0098ZM30.6724 27.459C30.6483 27.971 30.5114 28.4229 30.2589 28.8146C30.0066 29.2064 29.6508 29.5117 29.1965 29.7256C28.7398 29.9419 28.2182 30.05 27.6342 30.05C26.6679 30.05 25.906 29.7352 25.3507 29.1054C24.7955 28.4757 24.5191 27.5888 24.5191 26.4399V26.0769C24.5191 25.3558 24.6441 24.7261 24.894 24.1877C25.1464 23.6469 25.5069 23.2286 25.978 22.9354C26.4491 22.6398 26.9947 22.4932 27.6125 22.4932C28.5042 22.4932 29.2204 22.7287 29.7636 23.1974C30.3044 23.6661 30.6121 24.3126 30.6866 25.1371H28.92C28.9055 24.69 28.795 24.3704 28.5811 24.1732C28.3696 23.9786 28.0475 23.8824 27.6124 23.8824C27.1725 23.8824 26.848 24.0458 26.6437 24.3751C26.4394 24.7068 26.3312 25.2332 26.3216 25.9567V26.4758C26.3216 27.2594 26.4201 27.8194 26.6148 28.1559C26.8119 28.4924 27.1508 28.6607 27.6339 28.6607C28.0401 28.6607 28.3502 28.5645 28.5665 28.3746C28.7829 28.1824 28.8958 27.8771 28.9103 27.4589H30.6724V27.459Z" fill="white"/>
</svg>
