<svg width="41" height="40" viewBox="0 0 41 40" fill="none" xmlns="http://www.w3.org/2000/svg">
<path d="M35.409 13.1612V35.0581C35.409 37.0971 33.7561 38.75 31.7171 38.75H8.94969C6.9107 38.75 5.25781 37.0971 5.25781 35.0581V4.94187C5.25773 2.90289 6.91062 1.25 8.94969 1.25H24.1987L35.409 13.1612Z" fill="#00733B"/>
<path d="M35.4095 13.1612H26.6605C25.3012 13.1612 24.1992 12.0592 24.1992 10.6999V1.25L35.4095 13.1612Z" fill="#4D9D76"/>
<path d="M14.2341 24.5044L15.4359 22.0624H17.4597L15.4046 25.7062L17.515 29.4101H15.4719L14.2341 26.9224L12.9986 29.4101H10.958L13.0636 25.7062L11.0133 22.0624H13.0323L14.2341 24.5044ZM19.8633 28.0473H22.9471V29.4101H18.0919V22.0624H19.8633V28.0473ZM27.485 27.4584C27.485 27.1988 27.3937 26.9969 27.2111 26.8527C27.026 26.706 26.7039 26.5571 26.2448 26.4032C25.7833 26.247 25.406 26.098 25.1127 25.9538C24.1609 25.4851 23.685 24.8433 23.685 24.0261C23.685 23.6175 23.8028 23.2594 24.0407 22.9469C24.2786 22.6368 24.6127 22.3941 25.0478 22.221C25.4804 22.048 25.9683 21.9614 26.5115 21.9614C27.0404 21.9614 27.5138 22.0552 27.9321 22.2427C28.3503 22.4326 28.6771 22.6994 28.9079 23.0479C29.1411 23.3964 29.2564 23.7954 29.2564 24.2425H27.4898C27.4898 23.9421 27.3985 23.7113 27.2158 23.5455C27.0307 23.3796 26.7832 23.2979 26.4707 23.2979C26.1535 23.2979 25.9035 23.3676 25.7208 23.5071C25.5382 23.6464 25.4468 23.8243 25.4468 24.0406C25.4468 24.2281 25.5478 24.3988 25.7497 24.5526C25.9516 24.7064 26.305 24.8651 26.8145 25.0261C27.3217 25.1896 27.7399 25.365 28.0668 25.5549C28.86 26.0116 29.2565 26.6437 29.2565 27.4465C29.2565 28.0906 29.0138 28.5954 28.5307 28.9608C28.0451 29.3285 27.3818 29.5112 26.5357 29.5112C25.942 29.5112 25.4011 29.4054 24.9181 29.1915C24.435 28.9776 24.072 28.6843 23.8293 28.3142C23.5841 27.9416 23.4615 27.5138 23.4615 27.0282H25.2402C25.2402 27.4224 25.3411 27.7132 25.5454 27.8983C25.7473 28.0858 26.079 28.1796 26.5357 28.1796C26.8289 28.1796 27.0597 28.1171 27.2304 27.9897C27.401 27.8646 27.485 27.6867 27.485 27.4584Z" fill="white"/>
</svg>
