<svg width="40" height="40" viewBox="0 0 40 40" fill="none" xmlns="http://www.w3.org/2000/svg">
<path d="M35.0755 13.1612V35.0581C35.0755 37.0971 33.4226 38.75 31.3836 38.75H8.61619C6.57721 38.75 4.92432 37.0971 4.92432 35.0581V4.94187C4.92424 2.90289 6.57713 1.25 8.61619 1.25H23.8653L35.0755 13.1612Z" fill="#E5252A"/>
<path d="M35.0755 13.1612H26.3265C24.9672 13.1612 23.8652 12.0592 23.8652 10.6999V1.25L35.0755 13.1612Z" fill="#ED676A"/>
<path d="M12.7919 27.5847V30.0796H11.0205V22.7295H13.9529C14.5153 22.7295 15.0129 22.8329 15.4455 23.0396C15.8782 23.2463 16.2122 23.5419 16.4502 23.9241C16.6857 24.3063 16.8059 24.7389 16.8059 25.2244C16.8059 25.9407 16.5487 26.5128 16.0343 26.943C15.5224 27.3708 14.8181 27.5847 13.9216 27.5847H12.7919ZM12.7919 26.2171H13.9529C14.2966 26.2171 14.5586 26.1329 14.7388 25.9599C14.919 25.7893 15.008 25.5464 15.008 25.234C15.008 24.8903 14.9143 24.6163 14.7292 24.4096C14.5441 24.2053 14.2918 24.1019 13.9721 24.0971H12.7919V26.2171ZM17.7481 30.0796V22.7295H20.1156C20.7646 22.7295 21.3486 22.8761 21.8678 23.1718C22.3846 23.465 22.7907 23.8808 23.0816 24.4193C23.3725 24.9553 23.519 25.5561 23.5214 26.2219V26.5608C23.5214 27.2338 23.3796 27.8371 23.096 28.3707C22.8124 28.9043 22.411 29.3202 21.8942 29.623C21.3774 29.9235 20.8005 30.0749 20.166 30.0797H17.7481V30.0796ZM19.5196 24.0971V28.7168H20.1349C20.6444 28.7168 21.0338 28.5366 21.3054 28.1736C21.5794 27.8131 21.7164 27.2747 21.7164 26.5608V26.2436C21.7164 25.5321 21.5794 24.9985 21.3054 24.6379C21.0338 24.2774 20.6372 24.0971 20.1157 24.0971H19.5196ZM29.0618 27.1521H26.2039V30.0796H24.4325V22.7295H29.3479V24.0971H26.2039V25.7893H29.0618V27.1521Z" fill="white"/>
</svg>
