<svg aria-hidden="true" style="position: absolute; width: 0; height: 0; overflow: hidden;" version="1.1"
    xmlns="http://www.w3.org/2000/svg" xmlns:xlink="http://www.w3.org/1999/xlink">
    <defs>
        <symbol id="icon-arrow_right" viewBox="0 0 48 32">
            <path
                d="M47.237 14.586c0.781 0.781 0.781 2.047 0 2.828l-12.728 12.728c-0.781 0.781-2.047 0.781-2.828 0s-0.781-2.047 0-2.828l11.314-11.314-11.314-11.314c-0.781-0.781-0.781-2.047 0-2.828s2.047-0.781 2.828 0l12.728 12.728zM1.334 14h44.489v4h-44.489v-4z">
            </path>
        </symbol>
        <symbol id="icon-arrow_left" viewBox="0 0 48 32">
            <path
                d="M1.431 14.586c-0.781 0.781-0.781 2.047 0 2.828l12.728 12.728c0.781 0.781 2.047 0.781 2.828 0s0.781-2.047 0-2.828l-11.314-11.314 11.314-11.314c0.781-0.781 0.781-2.047 0-2.828s-2.047-0.781-2.828 0l-12.728 12.728zM47.334 14h-44.489v4h44.489v-4z">
            </path>
        </symbol>
        <symbol id="icon-subway_round" viewBox="0 0 34 32">
            <path
                d="M29.13 5.388c-2.925-3.3-7.181-5.388-11.944-5.388-8.838 0-16 7.162-16 16h4c0-6.631 5.369-12 12-12 3.656 0 6.9 1.656 9.094 4.238l-3.762 3.762h10.669v-10.669l-4.056 4.056zM17.186 28c-3.656 0-6.9-1.656-9.094-4.238l3.762-3.762h-10.669v10.669l4.056-4.056c2.925 3.3 7.188 5.388 11.944 5.388 8.838 0 16-7.163 16-16h-4c0 6.631-5.369 12-12 12z">
            </path>
        </symbol>

        <symbol id="icon-chevron" width="16" height="12" viewBox="0 0 16 12">
            <path fill-rule="evenodd" clip-rule="evenodd"
                d="M8.82496 9.66526C8.36935 10.1116 7.63065 10.1116 7.17504 9.66526L1.34171 3.95098C0.886097 3.50467 0.886097 2.78105 1.34171 2.33474C1.79732 1.88842 2.53601 1.88842 2.99162 2.33474L8 7.2409L13.0084 2.33474C13.464 1.88842 14.2027 1.88842 14.6583 2.33474C15.1139 2.78105 15.1139 3.50467 14.6583 3.95098L8.82496 9.66526Z"
                fill="white" />
        </symbol>
        <symbol id="icon-bussines" width="30" height="31" viewBox="0 0 30 31">
            <path
                d="M25.5749 6.88107H21.186V5.90757C21.186 5.13645 20.8787 4.39692 20.3316 3.85165C19.7845 3.30639 19.0425 3.00006 18.2688 3.00006H11.7572C11.3721 2.99752 10.9904 3.07203 10.6347 3.21918C10.279 3.36633 9.9566 3.58313 9.68651 3.85674C9.1412 4.40152 8.8325 5.13806 8.82698 5.90757V6.88107H4.42512C3.51672 6.88107 2.64553 7.24073 2.00319 7.88093C1.36086 8.52112 1 9.38942 1 10.2948V23.5863C1 24.4916 1.36086 25.3599 2.00319 26.0001C2.64553 26.6403 3.51672 27 4.42512 27H25.5749C26.4833 27 27.3545 26.6403 27.9968 26.0001C28.6391 25.3599 29 24.4916 29 23.5863V10.2948C29 9.38942 28.6391 8.52112 27.9968 7.88093C27.3545 7.24073 26.4833 6.88107 25.5749 6.88107ZM10.7805 5.90757C10.7825 5.77767 10.8112 5.64957 10.865 5.53123C10.9188 5.41288 10.9964 5.30682 11.093 5.21964C11.1803 5.12841 11.2854 5.05599 11.4019 5.00688C11.5184 4.95776 11.6438 4.93298 11.7702 4.93408H18.2819C18.5375 4.93408 18.7826 5.03527 18.9633 5.21541C19.144 5.39554 19.2456 5.63985 19.2456 5.89459V6.88107H10.7935L10.7805 5.90757ZM2.96651 10.3078C2.96645 9.91979 3.11929 9.5473 3.39211 9.27053C3.66492 8.99377 4.03589 8.83487 4.42512 8.82806H25.5749C25.9641 8.83145 26.3365 8.98707 26.6117 9.2614C26.887 9.53574 27.0431 9.90684 27.0465 10.2948V14.5003C27.0431 14.8883 26.887 15.2594 26.6117 15.5337C26.3365 15.808 25.9641 15.9636 25.5749 15.967H18.5814V15.6425C18.578 15.3854 18.474 15.1397 18.2916 14.9579C18.1091 14.776 17.8627 14.6724 17.6047 14.669H12.3953C12.1373 14.6724 11.8909 14.776 11.7084 14.9579C11.526 15.1397 11.422 15.3854 11.4186 15.6425V15.967H4.42512C4.03587 15.9636 3.66353 15.808 3.38828 15.5337C3.11303 15.2594 2.95689 14.8883 2.95349 14.5003L2.96651 10.3078ZM13.3851 16.9535V16.629H16.6409V17.278H13.3851V16.9535ZM25.5879 25.066H4.42512C4.03587 25.0626 3.66353 24.907 3.38828 24.6326C3.11303 24.3583 2.95689 23.9872 2.95349 23.5992V17.5895C3.40978 17.8195 3.91382 17.9395 4.42512 17.94H11.4186V18.2645C11.422 18.5216 11.526 18.7673 11.7084 18.9491C11.8909 19.131 12.1373 19.2346 12.3953 19.238H17.6047C17.8627 19.2346 18.1091 19.131 18.2916 18.9491C18.474 18.7673 18.578 18.5216 18.5814 18.2645V17.94H25.5749C26.0862 17.9395 26.5902 17.8195 27.0465 17.5895V23.6122C27.0364 23.9957 26.8773 24.3602 26.6028 24.629C26.3282 24.8977 25.9597 25.0498 25.5749 25.053L25.5879 25.066Z"
                fill="white" />
        </symbol>
    </defs>
</svg>