<svg aria-hidden="true" style="position: absolute; width: 0; height: 0; overflow: hidden;" version="1.1" xmlns="http://www.w3.org/2000/svg" xmlns:xlink="http://www.w3.org/1999/xlink">
<defs>
<symbol id="icon-arrow_right" viewBox="0 0 48 32">
<path  d="M47.237 14.586c0.781 0.781 0.781 2.047 0 2.828l-12.728 12.728c-0.781 0.781-2.047 0.781-2.828 0s-0.781-2.047 0-2.828l11.314-11.314-11.314-11.314c-0.781-0.781-0.781-2.047 0-2.828s2.047-0.781 2.828 0l12.728 12.728zM1.334 14h44.489v4h-44.489v-4z"></path>
</symbol>
<symbol id="icon-arrow_left" viewBox="0 0 48 32">
<path  d="M1.431 14.586c-0.781 0.781-0.781 2.047 0 2.828l12.728 12.728c0.781 0.781 2.047 0.781 2.828 0s0.781-2.047 0-2.828l-11.314-11.314 11.314-11.314c0.781-0.781 0.781-2.047 0-2.828s-2.047-0.781-2.828 0l-12.728 12.728zM47.334 14h-44.489v4h44.489v-4z"></path>
</symbol>
<symbol id="icon-subway_round" viewBox="0 0 34 32">
<path  d="M29.13 5.388c-2.925-3.3-7.181-5.388-11.944-5.388-8.838 0-16 7.162-16 16h4c0-6.631 5.369-12 12-12 3.656 0 6.9 1.656 9.094 4.238l-3.762 3.762h10.669v-10.669l-4.056 4.056zM17.186 28c-3.656 0-6.9-1.656-9.094-4.238l3.762-3.762h-10.669v10.669l4.056-4.056c2.925 3.3 7.188 5.388 11.944 5.388 8.838 0 16-7.163 16-16h-4c0 6.631-5.369 12-12 12z"></path>
</symbol>
</defs>
</svg>
